<svg width="39" height="60" fill="none" xmlns="http://www.w3.org/2000/svg"><path d="M17.592 34.956V15.079a.625.625 0 00-.63-.628H.631c-.35 0-.631.28-.631.628v17.723c0 9.674 7.874 17.503 17.591 17.503v-5.166c0-.33-.26-.608-.59-.628-4.679-.31-8.386-4.18-8.386-8.916h8.345c.341 0 .632-.29.632-.639z" fill="#284D73"/><path d="M20.857 44.65V14.93c0-.349.28-.628.631-.628h16.32c.35 0 .63.28.63.628v27.567C38.439 52.17 30.566 60 20.859 60v-5.176c0-.33.26-.609.59-.628 4.679-.31 8.385-4.18 8.385-8.917h-8.345a.634.634 0 01-.63-.628l-.002-.001z" fill="#5B9FD1"/><path d="M30.705 0H7.734c-.33 0-.601.27-.601.598v9.834a.6.6 0 00.6.599h22.972c.33 0 .601-.27.601-.599V.598A.595.595 0 0030.705 0zM14.606 7.3H11.02V3.73h3.586V7.3zm12.813 0h-3.586V3.73h3.586V7.3z" fill="#284D73"/></svg>