<svg width="141" height="221" fill="none" xmlns="http://www.w3.org/2000/svg"><path d="M64.532 128.813V55.899a2.297 2.297 0 00-2.311-2.304H2.315A2.303 2.303 0 000 55.9v65.012c0 35.487 28.884 64.206 64.528 64.206v-18.95a2.316 2.316 0 00-2.164-2.304c-17.164-1.137-30.762-15.333-30.762-32.706h30.611c1.251 0 2.319-1.064 2.319-2.344z" fill="#284D73"/><path d="M76.509 164.373V55.353a2.298 2.298 0 012.314-2.304h59.866A2.3 2.3 0 01141 55.352v101.123c.004 35.483-28.876 64.205-64.484 64.205v-18.986c0-1.211.954-2.234 2.164-2.304 17.164-1.137 30.758-15.333 30.758-32.71H78.827a2.326 2.326 0 01-2.311-2.304l-.007-.003z" fill="#5B9FD1"/><path d="M112.633.586H28.37c-1.21 0-2.204.99-2.204 2.193v36.074a2.201 2.201 0 002.2 2.197h84.267a2.21 2.21 0 002.205-2.197V2.779a2.18 2.18 0 00-2.205-2.193zM53.578 27.364H40.424V14.268h13.154v13.096zm47.002 0H87.425V14.268h13.155v13.096z" fill="#284D73"/></svg>