<svg width="141" height="221" viewBox="0 0 141 221" fill="none" xmlns="http://www.w3.org/2000/svg">
<path d="M64.5318 128.813V55.8991C64.5327 55.5957 64.4736 55.2951 64.3577 55.0147C64.2418 54.7343 64.0715 54.4796 63.8566 54.2654C63.6417 54.0512 63.3865 53.8817 63.1057 53.7667C62.825 53.6517 62.5242 53.5935 62.2208 53.5954H2.31466C1.03078 53.5954 0 54.6226 0 55.8991V120.911C0 156.398 28.8838 185.117 64.5281 185.117V166.167C64.5281 164.956 63.5744 163.936 62.3638 163.863C45.2001 162.726 31.6019 148.53 31.6019 131.157H62.2134C63.4643 131.157 64.5318 130.093 64.5318 128.813Z" fill="#284D73"/>
<path d="M76.5086 164.373V55.3525C76.5086 54.0723 77.5357 53.0489 78.8232 53.0489H138.689C139.973 53.0489 141 54.076 141 55.3525V156.475C141.004 191.958 112.124 220.68 76.5159 220.68V201.694C76.5159 200.483 77.4697 199.46 78.6802 199.39C95.8439 198.253 109.438 184.057 109.438 166.68H78.8269C78.2164 166.676 77.632 166.433 77.1996 166.002C76.7672 165.571 76.5217 164.987 76.5159 164.376L76.5086 164.373Z" fill="#5B9FD1"/>
<path d="M112.633 0.585744H28.3702C27.1597 0.585744 26.1656 1.57617 26.1656 2.77935V38.8529C26.1666 39.436 26.3989 39.9949 26.8115 40.4068C27.2242 40.8188 27.7834 41.0502 28.3665 41.0502H112.633C113.844 41.0502 114.838 40.0597 114.838 38.8529V2.77935C114.84 2.48994 114.783 2.20313 114.673 1.9356C114.563 1.66808 114.4 1.42518 114.195 1.22105C113.99 1.01691 113.746 0.855619 113.478 0.746552C113.21 0.637484 112.923 0.582821 112.633 0.585744V0.585744ZM53.5784 27.3639H40.4241V14.2683H53.5784V27.3639ZM100.58 27.3639H87.4253V14.2683H100.58V27.3639Z" fill="#284D73"/>
</svg>
